# Blender v3.0.1 OBJ File: ''
# www.blender.org
mtllib 9mm.mtl
o Cube_Cube.002
v -0.022246 -0.022246 0.079591
v -0.022246 0.022248 0.079591
v -0.010108 -0.010108 -0.073513
v -0.010108 0.010108 -0.073513
v 0.022248 -0.022246 0.079591
v 0.022248 0.022248 0.079591
v 0.010108 -0.010108 -0.073513
v 0.010108 0.010108 -0.073513
v -0.014658 -0.014658 0.108652
v -0.014658 0.014674 0.108652
v 0.014674 -0.014658 0.108652
v 0.014674 0.014674 0.108652
v -0.024280 -0.024280 0.071310
v -0.024280 0.024280 0.071310
v 0.024280 -0.024280 0.071310
v 0.024280 0.024280 0.071310
v -0.024309 0.024309 0.070160
v 0.024309 -0.024309 0.070160
v -0.024309 -0.024309 0.070160
v 0.024309 0.024309 0.070160
v -0.024314 0.024314 -0.071101
v 0.024314 -0.024314 -0.071101
v -0.024314 -0.024314 -0.071101
v 0.024314 0.024314 -0.071101
v -0.024314 -0.024314 -0.052398
v 0.024314 0.024314 -0.052398
v -0.024314 0.024314 -0.052398
v 0.024314 -0.024314 -0.052398
v -0.021036 0.021036 -0.065591
v 0.021036 -0.021036 -0.065591
v -0.021036 -0.021036 -0.065591
v 0.021036 0.021036 -0.065591
v -0.024314 -0.024314 0.049542
v 0.024314 0.024314 0.049542
v -0.024314 0.024314 0.049542
v 0.024314 -0.024314 0.049542
v -0.024314 0.024314 -0.073513
v -0.024314 -0.024314 -0.073513
v 0.024314 -0.024314 -0.073513
v 0.024314 0.024314 -0.073513
v 0.000018 0.000018 0.122999
v -0.021075 -0.021075 -0.058994
v 0.021075 0.021075 -0.058994
v -0.021075 0.021075 -0.058994
v 0.021075 -0.021075 -0.058994
v -0.023705 -0.023705 0.073171
v -0.030589 0.000001 0.079591
v -0.024314 0.024314 -0.072307
v -0.033432 0.000000 -0.073513
v 0.000000 -0.033432 -0.073513
v 0.000000 0.033432 -0.073513
v 0.033432 0.000000 -0.073513
v 0.024314 -0.024314 -0.072307
v 0.023706 0.023706 0.073171
v 0.030590 0.000001 0.079591
v 0.000001 -0.030589 0.079591
v 0.000001 0.030590 0.079591
v -0.020535 0.000007 0.108444
v 0.020550 0.000007 0.108444
v 0.000007 -0.020535 0.108444
v 0.000007 0.020550 0.108444
v -0.019207 -0.019207 0.093168
v -0.019207 0.019213 0.093168
v 0.019213 -0.019207 0.093168
v 0.019213 0.019213 0.093168
v 0.008520 0.008520 0.119542
v -0.024296 -0.024296 0.070649
v -0.023705 0.023706 0.073171
v 0.023706 -0.023705 0.073171
v 0.024296 0.024296 0.070649
v 0.000000 0.033384 0.071310
v 0.000000 -0.033384 0.071310
v 0.033384 -0.000000 0.071310
v -0.033384 0.000000 0.071310
v -0.024296 0.024296 0.070649
v 0.024296 -0.024296 0.070649
v -0.024314 -0.024314 0.067410
v 0.024314 0.024314 0.067410
v 0.033424 -0.000000 0.070160
v 0.000000 -0.033424 0.070160
v 0.000000 0.033424 0.070160
v -0.033424 -0.000000 0.070160
v -0.022675 0.022675 -0.068346
v 0.022675 -0.022675 -0.068346
v -0.024314 -0.024314 -0.072307
v 0.024314 0.024314 -0.072307
v 0.000000 0.033432 -0.071101
v 0.000000 -0.033432 -0.071101
v 0.033432 0.000000 -0.071101
v -0.033432 0.000000 -0.071101
v -0.022695 -0.022695 -0.055696
v 0.022695 0.022695 -0.055696
v -0.024314 0.024314 0.006218
v 0.024314 -0.024314 0.006218
v -0.033432 0.000000 -0.052398
v 0.000000 0.033432 -0.052398
v -0.000000 -0.033432 -0.052398
v 0.033432 -0.000000 -0.052398
v -0.021056 0.021056 -0.062293
v 0.021056 -0.021056 -0.062293
v -0.022675 -0.022675 -0.068346
v 0.022675 0.022675 -0.068346
v 0.028925 0.000000 -0.065591
v 0.000000 -0.028925 -0.065591
v 0.000000 0.028925 -0.065591
v -0.028925 0.000000 -0.065591
v -0.024314 -0.024314 0.006218
v 0.024314 0.024314 0.006218
v -0.024314 0.024314 0.067410
v 0.024314 -0.024314 0.067410
v -0.033432 0.000000 0.049542
v 0.000000 0.033432 0.049542
v 0.000000 -0.033432 0.049542
v 0.033432 -0.000000 0.049542
v -0.011488 0.000000 -0.073513
v -0.000000 -0.011488 -0.073513
v -0.000000 0.011488 -0.073513
v 0.011488 0.000000 -0.073513
v -0.016377 0.016377 -0.073513
v -0.016377 -0.016377 -0.073513
v 0.016377 -0.016377 -0.073513
v 0.016377 0.016377 -0.073513
v -0.008491 -0.008491 0.119542
v 0.008520 -0.008491 0.119542
v -0.008491 0.008520 0.119542
v -0.021056 -0.021056 -0.062293
v 0.021056 0.021056 -0.062293
v -0.022695 0.022695 -0.055696
v 0.022695 -0.022695 -0.055696
v -0.028978 -0.000000 -0.058994
v 0.028978 -0.000000 -0.058994
v -0.000000 -0.028978 -0.058994
v 0.000000 0.028978 -0.058994
v -0.033432 0.000000 -0.072307
v -0.000000 0.000000 -0.073513
v 0.032595 0.000000 0.073171
v -0.026458 0.000003 0.093142
v 0.000000 -0.032595 0.073171
v 0.000000 0.032595 0.073171
v 0.014237 0.000013 0.117957
v 0.000003 -0.026458 0.093142
v 0.000003 0.026464 0.093142
v 0.026464 0.000003 0.093142
v 0.000013 0.014237 0.117957
v 0.000000 0.033407 0.070649
v 0.000000 -0.033407 0.070649
v 0.033407 0.000000 0.070649
v -0.032595 0.000000 0.073171
v 0.033431 -0.000000 0.067410
v 0.000000 -0.033431 0.067410
v 0.000000 0.033431 0.067410
v -0.033407 -0.000000 0.070649
v 0.000000 0.033432 -0.072307
v 0.000000 -0.033432 -0.072307
v 0.033432 0.000000 -0.072307
v -0.031178 0.000000 -0.068346
v -0.033432 0.000000 0.006218
v 0.000000 0.031205 -0.055696
v -0.000000 -0.031205 -0.055696
v 0.031205 -0.000000 -0.055696
v 0.031178 0.000000 -0.068346
v 0.000000 -0.031178 -0.068346
v -0.000000 0.031178 -0.068346
v -0.028951 0.000000 -0.062293
v -0.033431 -0.000000 0.067410
v 0.000000 0.033432 0.006218
v 0.000000 -0.033432 0.006218
v 0.033432 -0.000000 0.006218
v -0.022354 0.000000 -0.073513
v 0.000000 -0.022354 -0.073513
v 0.000000 0.022354 -0.073513
v 0.022354 0.000000 -0.073513
v 0.000013 -0.014210 0.117957
v -0.014210 0.000013 0.117957
v -0.031205 0.000000 -0.055696
v 0.028951 -0.000000 -0.062293
v -0.000000 -0.028951 -0.062293
v 0.000000 0.028951 -0.062293
vt 0.375000 0.245899
vt 0.500000 0.245899
vt 0.500000 0.247950
vt 0.375000 0.247950
vt 0.625000 0.245899
vt 0.625000 0.247950
vt 0.625000 0.250000
vt 0.500000 0.250000
vt 0.375000 0.250000
vt 0.375000 0.709241
vt 0.500000 0.709241
vt 0.500000 0.739624
vt 0.375000 0.739624
vt 0.625000 0.709241
vt 0.625000 0.739624
vt 0.625000 0.744299
vt 0.500000 0.744299
vt 0.375000 0.744299
vt 0.125000 0.743908
vt 0.250000 0.712130
vt 0.250000 0.740338
vt 0.125000 0.743908
vt 0.250000 0.744267
vt 0.125000 0.743908
vt 0.750000 0.712130
vt 0.750000 0.740338
vt 0.875000 0.743908
vt 0.875000 0.743908
vt 0.875000 0.743908
vt 0.750000 0.744267
vt 0.625000 0.500000
vt 0.750000 0.500000
vt 0.750000 0.502050
vt 0.625000 0.502050
vt 0.875000 0.500000
vt 0.875000 0.502050
vt 0.875000 0.504101
vt 0.750000 0.504101
vt 0.625000 0.504101
vt 0.125000 0.500000
vt 0.250000 0.500000
vt 0.250000 0.502050
vt 0.125000 0.502050
vt 0.375000 0.500000
vt 0.375000 0.502050
vt 0.375000 0.504101
vt 0.250000 0.504101
vt 0.125000 0.504101
vt 0.500000 0.500000
vt 0.500000 0.502050
vt 0.500000 0.504101
vt 0.375000 0.236530
vt 0.500000 0.236530
vt 0.500000 0.241215
vt 0.375000 0.241215
vt 0.625000 0.236530
vt 0.625000 0.241215
vt 0.375000 0.006092
vt 0.500000 0.034981
vt 0.500000 0.112983
vt 0.375000 0.110094
vt 0.625000 0.006092
vt 0.625000 0.110094
vt 0.625000 0.214097
vt 0.500000 0.214097
vt 0.375000 0.214097
vt 0.625000 0.524687
vt 0.750000 0.524687
vt 0.750000 0.530295
vt 0.625000 0.530295
vt 0.875000 0.524687
vt 0.875000 0.530295
vt 0.875000 0.535903
vt 0.750000 0.535903
vt 0.625000 0.535903
vt 0.125000 0.524687
vt 0.250000 0.524687
vt 0.250000 0.530295
vt 0.125000 0.530295
vt 0.375000 0.524687
vt 0.375000 0.530295
vt 0.375000 0.535903
vt 0.250000 0.535903
vt 0.125000 0.535903
vt 0.500000 0.524687
vt 0.500000 0.530295
vt 0.500000 0.535903
vt 0.500000 0.508785
vt 0.375000 0.508785
vt 0.625000 0.508785
vt 0.625000 0.513470
vt 0.500000 0.513470
vt 0.375000 0.513470
vt 0.250000 0.508785
vt 0.125000 0.508785
vt 0.250000 0.513470
vt 0.125000 0.513470
vt 0.750000 0.508785
vt 0.875000 0.508785
vt 0.875000 0.513470
vt 0.750000 0.513470
vt 0.375000 0.225313
vt 0.500000 0.225313
vt 0.500000 0.230922
vt 0.375000 0.230922
vt 0.625000 0.225313
vt 0.625000 0.230922
vt 0.375000 0.006092
vt 0.500000 0.005766
vt 0.500000 0.008948
vt 0.375000 0.006092
vt 0.625000 0.006092
vt 0.625000 0.006092
vt 0.750000 0.636295
vt 0.625000 0.635572
vt 0.875000 0.639906
vt 0.250000 0.636295
vt 0.125000 0.639906
vt 0.375000 0.635572
vt 0.500000 0.635572
vt 0.500000 0.219705
vt 0.375000 0.219705
vt 0.625000 0.219705
vt 0.500000 0.519078
vt 0.375000 0.519078
vt 0.625000 0.519078
vt 0.250000 0.519078
vt 0.125000 0.519078
vt 0.750000 0.519078
vt 0.875000 0.519078
vt 0.375000 0.746254
vt 0.500000 0.746254
vt 0.500001 0.748570
vt 0.375347 0.748502
vt 0.625000 0.746254
vt 0.624655 0.748502
vt 0.622240 0.753002
vt 0.500008 0.753546
vt 0.377773 0.753002
vt 0.625000 0.000000
vt 0.500004 0.000520
vt 0.500017 0.000052
vt 0.614480 0.000000
vt 0.375000 0.000000
vt 0.385552 0.000000
vt 0.396105 0.000000
vt 0.500032 0.000000
vt 0.603959 0.000000
vt 0.125000 0.746254
vt 0.250000 0.746254
vt 0.250395 0.748323
vt 0.125000 0.748127
vt 0.253450 0.751513
vt 0.125000 0.750000
vt 0.750000 0.746254
vt 0.749606 0.748323
vt 0.875000 0.746254
vt 0.875000 0.748127
vt 0.875000 0.750000
vt 0.746557 0.751513
vt 0.598889 0.776111
vt 0.543000 0.840424
vt 0.500099 0.813939
vt 0.500057 0.783074
vt 0.500130 0.884537
vt 0.457215 0.840423
vt 0.401204 0.776111
vt 0.261823 0.756542
vt 0.135552 0.750000
vt 0.384462 0.761755
vt 0.273655 0.763055
vt 0.146105 0.750000
vt 0.738199 0.756542
vt 0.615580 0.761755
vt 0.864445 0.750000
vt 0.853890 0.750000
vt 0.726390 0.763055
vt 0.500025 0.763687
vt 0.617529 0.893602
vt 0.575156 0.888177
vt 0.636168 1.011094
vt 0.550765 0.933844
vt 0.750000 0.745122
vt 0.625000 0.745130
vt 0.875000 0.745081
vt 0.250000 0.745122
vt 0.125000 0.745081
vt 0.375000 0.745130
vt 0.500000 0.745130
vt 0.500000 0.001925
vt 0.375000 0.001873
vt 0.625000 0.001873
vt 0.625000 0.003746
vt 0.500000 0.003746
vt 0.375000 0.003746
vt 0.500000 0.004886
vt 0.375000 0.004919
vt 0.625000 0.004919
vt 0.425036 0.888175
vt 0.382559 0.893599
vt 0.449445 0.933842
vt 0.363913 1.011087
vt 0.500094 0.963239
vt 0.500041 1.011091
vt 0.465358 0.340358
vt 0.500000 0.335625
vt 0.500000 0.375000
vt 0.460625 0.375000
vt 0.534642 0.340358
vt 0.539375 0.375000
vt 0.534642 0.409642
vt 0.500000 0.414375
vt 0.465358 0.409642
vt 0.500000 0.296649
vt 0.559603 0.315397
vt 0.440397 0.315397
vt 0.421649 0.375000
vt 0.440397 0.434603
vt 0.375000 0.375000
vt 0.578351 0.375000
vt 0.559603 0.434603
vt 0.625000 0.375000
vt 0.500000 0.453351
vn -0.6707 -0.6707 0.3166
vn -0.9492 0.0000 0.3145
vn -1.0000 0.0000 0.0000
vn -0.7071 -0.7071 0.0000
vn -0.6707 0.6707 0.3166
vn -0.7071 0.7071 0.0000
vn -0.5521 0.5521 -0.6247
vn -0.7717 0.0000 -0.6359
vn -0.5521 -0.5521 -0.6247
vn 0.7071 -0.7071 0.0000
vn 1.0000 0.0000 0.0000
vn 1.0000 0.0000 0.0013
vn 0.7071 -0.7071 0.0013
vn 0.7071 0.7071 0.0000
vn 0.7071 0.7071 0.0013
vn 0.7070 0.7070 0.0190
vn 0.9998 0.0000 0.0185
vn 0.7070 -0.7070 0.0190
vn 0.0000 -1.0000 0.0000
vn 0.0000 -1.0000 0.0013
vn -0.7071 -0.7071 0.0013
vn 0.0000 -0.9998 0.0185
vn -0.7070 -0.7070 0.0190
vn 0.0000 1.0000 0.0000
vn 0.0000 1.0000 0.0013
vn -0.7071 0.7071 0.0013
vn -0.7070 0.7070 0.0190
vn 0.0000 0.9998 0.0185
vn 0.5521 0.5521 -0.6247
vn 0.0000 0.7717 -0.6359
vn 0.0000 0.9492 0.3145
vn 0.6707 0.6707 0.3166
vn 0.0000 -0.7717 -0.6359
vn 0.5521 -0.5521 -0.6247
vn 0.6707 -0.6707 0.3166
vn 0.0000 -0.9492 0.3145
vn 0.7717 0.0000 -0.6359
vn 0.9492 0.0000 0.3145
vn -0.6564 -0.6564 0.3720
vn -0.9333 0.0000 0.3589
vn -0.7740 0.0000 0.6332
vn -0.5411 -0.5411 0.6438
vn -0.6564 0.6564 0.3720
vn -0.5411 0.5411 0.6438
vn -0.6791 0.6791 -0.2785
vn -0.9612 0.0000 -0.2758
vn -0.6791 -0.6791 -0.2785
vn 0.6680 0.6680 -0.3280
vn 0.0000 0.9486 -0.3165
vn 0.0000 0.8287 -0.5596
vn 0.5808 0.5808 -0.5704
vn -0.6680 0.6680 -0.3280
vn -0.5808 0.5808 -0.5704
vn 0.0000 0.9612 -0.2758
vn 0.6791 0.6791 -0.2785
vn -0.6680 -0.6680 -0.3280
vn 0.0000 -0.9486 -0.3165
vn 0.0000 -0.8287 -0.5596
vn -0.5808 -0.5808 -0.5704
vn 0.6680 -0.6680 -0.3280
vn 0.5808 -0.5808 -0.5704
vn 0.6791 -0.6791 -0.2785
vn 0.0000 -0.9612 -0.2758
vn 0.9486 0.0000 -0.3165
vn 0.8287 0.0000 -0.5596
vn 0.9612 0.0000 -0.2758
vn 0.7740 0.0000 0.6332
vn 0.5411 -0.5411 0.6438
vn 0.5411 0.5411 0.6438
vn 0.6564 0.6564 0.3720
vn 0.9333 0.0000 0.3589
vn 0.6564 -0.6564 0.3720
vn 0.0000 -0.7740 0.6332
vn 0.0000 -0.9333 0.3589
vn 0.0000 0.7740 0.6332
vn 0.0000 0.9333 0.3589
vn -0.9486 0.0000 -0.3165
vn -0.9999 0.0000 -0.0081
vn -0.7071 -0.7071 -0.0083
vn -0.7071 0.7071 -0.0083
vn -0.9998 0.0000 0.0185
vn -1.0000 0.0000 0.0013
vn -0.8287 0.0000 -0.5596
vn 0.9999 0.0000 -0.0081
vn 0.7071 -0.7071 -0.0083
vn 0.7071 0.7071 -0.0083
vn 0.0000 -0.9999 -0.0081
vn 0.0000 0.9999 -0.0081
vn 0.6911 -0.6911 0.2116
vn 0.9781 0.0000 0.2080
vn 0.9374 0.0000 0.3483
vn 0.6603 -0.6603 0.3578
vn 0.6911 0.6911 0.2116
vn 0.6603 0.6603 0.3577
vn 0.6738 0.6738 0.3031
vn 0.9553 0.0000 0.2955
vn 0.6738 -0.6738 0.3033
vn -0.6738 0.6738 0.3033
vn -0.9552 0.0000 0.2958
vn -0.9445 0.0000 0.3283
vn -0.6663 0.6663 0.3348
vn -0.6738 -0.6738 0.3034
vn -0.6662 -0.6662 0.3351
vn -0.6222 -0.6222 0.4751
vn -0.8806 0.0000 0.4739
vn -0.6224 0.6224 0.4746
vn -0.6911 -0.6911 0.2117
vn 0.0000 -0.9781 0.2080
vn 0.0000 -0.9373 0.3484
vn -0.6603 -0.6603 0.3579
vn 0.0000 -0.9552 0.2958
vn 0.0000 0.9781 0.2080
vn 0.0000 0.9374 0.3483
vn -0.6911 0.6911 0.2116
vn -0.6603 0.6603 0.3578
vn 0.0000 0.9553 0.2955
vn 0.6225 0.6225 0.4742
vn 0.4032 0.4032 0.8215
vn 0.6707 0.0001 0.7417
vn 0.8809 0.0000 0.4733
vn 0.0001 0.0001 1.0000
vn 0.4031 -0.4029 0.8217
vn 0.6224 -0.6224 0.4746
vn 0.0000 -0.9445 0.3283
vn 0.6663 -0.6663 0.3348
vn 0.0000 -0.8806 0.4739
vn 0.0000 0.9447 0.3280
vn 0.6663 0.6663 0.3346
vn 0.0000 0.8809 0.4733
vn 0.9447 0.0000 0.3280
vn 0.0001 0.6707 0.7417
vn -0.4029 0.4031 0.8217
vn 0.0000 0.9994 0.0346
vn 0.7067 0.7067 0.0356
vn -0.7067 0.7067 0.0356
vn 0.0000 -0.9994 0.0346
vn -0.7067 -0.7067 0.0356
vn 0.7067 -0.7067 0.0356
vn 0.9994 0.0000 0.0346
vn -0.9373 0.0000 0.3484
vn -0.9781 0.0000 0.2080
vn -0.9994 0.0000 0.0346
vn 0.0001 -0.6702 0.7421
vn -0.4028 -0.4028 0.8219
vn -0.6702 0.0001 0.7421
vn 0.0000 0.0000 -1.0000
usemtl ammo_gold
s 1
f 23/1/1 90/2/2 134/3/3 85/4/4
f 90/2/2 21/5/5 48/6/6 134/3/3
f 134/3/3 48/6/6 37/7/7 49/8/8
f 85/4/4 134/3/3 49/8/8 38/9/9
f 36/10/10 114/11/11 149/12/12 110/13/13
f 114/11/11 34/14/14 78/15/15 149/12/12
f 149/12/12 78/15/15 20/16/16 79/17/17
f 110/13/13 149/12/12 79/17/17 18/18/18
f 33/19/4 113/20/19 150/21/20 77/22/21
f 113/20/19 36/10/10 110/13/13 150/21/20
f 150/21/20 110/13/13 18/18/18 80/23/22
f 77/22/21 150/21/20 80/23/22 19/24/23
f 34/14/14 112/25/24 151/26/25 78/15/15
f 112/25/24 35/27/6 109/28/26 151/26/25
f 151/26/25 109/28/26 17/29/27 81/30/28
f 78/15/15 151/26/25 81/30/28 20/16/16
f 40/31/29 51/32/30 153/33/24 86/34/14
f 51/32/30 37/35/7 48/36/6 153/33/24
f 153/33/24 48/36/6 21/37/5 87/38/31
f 86/34/14 153/33/24 87/38/31 24/39/32
f 38/40/9 50/41/33 154/42/19 85/43/4
f 50/41/33 39/44/34 53/45/10 154/42/19
f 154/42/19 53/45/10 22/46/35 88/47/36
f 85/43/4 154/42/19 88/47/36 23/48/1
f 39/44/34 52/49/37 155/50/11 53/45/10
f 52/49/37 40/31/29 86/34/14 155/50/11
f 155/50/11 86/34/14 24/39/32 89/51/38
f 53/45/10 155/50/11 89/51/38 22/46/35
f 31/52/39 106/53/40 156/54/41 101/55/42
f 106/53/40 29/56/43 83/57/44 156/54/41
f 156/54/41 83/57/44 21/5/5 90/2/2
f 101/55/42 156/54/41 90/2/2 23/1/1
f 33/58/4 111/59/3 157/60/3 107/61/4
f 111/59/3 35/62/6 93/63/6 157/60/3
f 157/60/3 93/63/6 27/64/45 95/65/46
f 107/61/4 157/60/3 95/65/46 25/66/47
f 43/67/48 133/68/49 158/69/50 92/70/51
f 133/68/49 44/71/52 128/72/53 158/69/50
f 158/69/50 128/72/53 27/73/45 96/74/54
f 92/70/51 158/69/50 96/74/54 26/75/55
f 42/76/56 132/77/57 159/78/58 91/79/59
f 132/77/57 45/80/60 129/81/61 159/78/58
f 159/78/58 129/81/61 28/82/62 97/83/63
f 91/79/59 159/78/58 97/83/63 25/84/47
f 45/80/60 131/85/64 160/86/65 129/81/61
f 131/85/64 43/67/48 92/70/51 160/86/65
f 160/86/65 92/70/51 26/75/55 98/87/66
f 129/81/61 160/86/65 98/87/66 28/82/62
f 22/46/35 89/51/38 161/88/67 84/89/68
f 89/51/38 24/39/32 102/90/69 161/88/67
f 161/88/67 102/90/69 32/91/70 103/92/71
f 84/89/68 161/88/67 103/92/71 30/93/72
f 23/48/1 88/47/36 162/94/73 101/95/42
f 88/47/36 22/46/35 84/89/68 162/94/73
f 162/94/73 84/89/68 30/93/72 104/96/74
f 101/95/42 162/94/73 104/96/74 31/97/39
f 24/39/32 87/38/31 163/98/75 102/90/69
f 87/38/31 21/37/5 83/99/44 163/98/75
f 163/98/75 83/99/44 29/100/43 105/101/76
f 102/90/69 163/98/75 105/101/76 32/91/70
f 42/102/56 130/103/77 164/104/78 126/105/79
f 130/103/77 44/106/52 99/107/80 164/104/78
f 164/104/78 99/107/80 29/56/43 106/53/40
f 126/105/79 164/104/78 106/53/40 31/52/39
f 19/108/23 82/109/81 165/110/82 77/111/21
f 82/109/81 17/112/27 109/113/26 165/110/82
f 165/110/82 109/113/26 35/62/6 111/59/3
f 77/111/21 165/110/82 111/59/3 33/58/4
f 26/75/55 96/74/54 166/114/24 108/115/14
f 96/74/54 27/73/45 93/116/6 166/114/24
f 166/114/24 93/116/6 35/27/6 112/25/24
f 108/115/14 166/114/24 112/25/24 34/14/14
f 25/84/47 97/83/63 167/117/19 107/118/4
f 97/83/63 28/82/62 94/119/10 167/117/19
f 167/117/19 94/119/10 36/10/10 113/20/19
f 107/118/4 167/117/19 113/20/19 33/19/4
f 28/82/62 98/87/66 168/120/11 94/119/10
f 98/87/66 26/75/55 108/115/14 168/120/11
f 168/120/11 108/115/14 34/14/14 114/11/11
f 94/119/10 168/120/11 114/11/11 36/10/10
f 25/66/47 95/65/46 175/121/83 91/122/59
f 95/65/46 27/64/45 128/123/53 175/121/83
f 175/121/83 128/123/53 44/106/52 130/103/77
f 91/122/59 175/121/83 130/103/77 42/102/56
f 30/93/72 103/92/71 176/124/84 100/125/85
f 103/92/71 32/91/70 127/126/86 176/124/84
f 176/124/84 127/126/86 43/67/48 131/85/64
f 100/125/85 176/124/84 131/85/64 45/80/60
f 31/97/39 104/96/74 177/127/87 126/128/79
f 104/96/74 30/93/72 100/125/85 177/127/87
f 177/127/87 100/125/85 45/80/60 132/77/57
f 126/128/79 177/127/87 132/77/57 42/76/56
f 32/91/70 105/101/76 178/129/88 127/126/86
f 105/101/76 29/100/43 99/130/80 178/129/88
f 178/129/88 99/130/80 44/71/52 133/68/49
f 127/126/86 178/129/88 133/68/49 43/67/48
usemtl Material.001
f 15/131/89 73/132/90 136/133/91 69/134/92
f 73/132/90 16/135/93 54/136/94 136/133/91
f 136/133/91 54/136/94 6/137/95 55/138/96
f 69/134/92 136/133/91 55/138/96 5/139/97
f 2/140/98 47/141/99 137/142/100 63/143/101
f 47/141/99 1/144/102 62/145/103 137/142/100
f 137/142/100 62/145/103 9/146/104 58/147/105
f 63/143/101 137/142/100 58/147/105 10/148/106
f 13/149/107 72/150/108 138/151/109 46/152/110
f 72/150/108 15/131/89 69/134/92 138/151/109
f 138/151/109 69/134/92 5/139/97 56/153/111
f 46/152/110 138/151/109 56/153/111 1/154/102
f 16/135/93 71/155/112 139/156/113 54/136/94
f 71/155/112 14/157/114 68/158/115 139/156/113
f 139/156/113 68/158/115 2/159/98 57/160/116
f 54/136/94 139/156/113 57/160/116 6/137/95
f 12/161/117 66/162/118 140/163/119 59/164/120
f 41/165/121 124/166/122 140/163/119 66/162/118
f 11/167/123 59/164/120 140/163/119 124/166/122
f 1/154/102 56/153/111 141/168/124 62/169/103
f 56/153/111 5/139/97 64/170/125 141/168/124
f 141/168/124 64/170/125 11/167/123 60/171/126
f 62/169/103 141/168/124 60/171/126 9/172/104
f 6/137/95 57/160/116 142/173/127 65/174/128
f 57/160/116 2/159/98 63/175/101 142/173/127
f 142/173/127 63/175/101 10/176/106 61/177/129
f 65/174/128 142/173/127 61/177/129 12/161/117
f 5/139/97 55/138/96 143/178/130 64/170/125
f 55/138/96 6/137/95 65/174/128 143/178/130
f 143/178/130 65/174/128 12/161/117 59/164/120
f 64/170/125 143/178/130 59/164/120 11/167/123
f 12/161/117 61/179/129 144/180/131 66/162/118
f 10/181/106 125/182/132 144/180/131 61/179/129
f 41/165/121 66/162/118 144/180/131 125/182/132
f 20/16/16 81/30/28 145/183/133 70/184/134
f 81/30/28 17/29/27 75/185/135 145/183/133
f 145/183/133 75/185/135 14/157/114 71/155/112
f 70/184/134 145/183/133 71/155/112 16/135/93
f 19/24/23 80/23/22 146/186/136 67/187/137
f 80/23/22 18/18/18 76/188/138 146/186/136
f 146/186/136 76/188/138 15/131/89 72/150/108
f 67/187/137 146/186/136 72/150/108 13/149/107
f 18/18/18 79/17/17 147/189/139 76/188/138
f 79/17/17 20/16/16 70/184/134 147/189/139
f 147/189/139 70/184/134 16/135/93 73/132/90
f 76/188/138 147/189/139 73/132/90 15/131/89
f 1/144/102 47/141/99 148/190/140 46/191/110
f 47/141/99 2/140/98 68/192/115 148/190/140
f 148/190/140 68/192/115 14/193/114 74/194/141
f 46/191/110 148/190/140 74/194/141 13/195/107
f 13/195/107 74/194/141 152/196/142 67/197/137
f 74/194/141 14/193/114 75/198/135 152/196/142
f 152/196/142 75/198/135 17/112/27 82/109/81
f 67/197/137 152/196/142 82/109/81 19/108/23
f 11/167/123 124/166/122 173/199/143 60/200/126
f 41/165/121 123/201/144 173/199/143 124/166/122
f 9/202/104 60/200/126 173/199/143 123/201/144
f 41/165/121 125/182/132 174/203/145 123/201/144
f 10/181/106 58/204/105 174/203/145 125/182/132
f 9/202/104 123/201/144 174/203/145 58/204/105
usemtl Material.002
f 3/205/146 115/206/146 135/207/146 116/208/146
f 115/206/146 4/209/146 117/210/146 135/207/146
f 135/207/146 117/210/146 8/211/146 118/212/146
f 116/208/146 135/207/146 118/212/146 7/213/146
f 4/209/146 115/206/146 169/214/146 119/215/146
f 115/206/146 3/205/146 120/216/146 169/214/146
f 169/214/146 120/216/146 38/9/9 49/8/8
f 119/215/146 169/214/146 49/8/8 37/7/7
f 3/205/146 116/208/146 170/217/146 120/216/146
f 116/208/146 7/213/146 121/218/146 170/217/146
f 170/217/146 121/218/146 39/44/34 50/219/33
f 120/216/146 170/217/146 50/219/33 38/9/9
f 8/211/146 117/210/146 171/220/146 122/221/146
f 117/210/146 4/209/146 119/215/146 171/220/146
f 171/220/146 119/215/146 37/7/7 51/222/30
f 122/221/146 171/220/146 51/222/30 40/31/29
f 7/213/146 118/212/146 172/223/146 121/218/146
f 118/212/146 8/211/146 122/221/146 172/223/146
f 172/223/146 122/221/146 40/31/29 52/49/37
f 121/218/146 172/223/146 52/49/37 39/44/34
